# Blender 4.3.1
# www.blender.org
mtllib cactus.mtl
o Low_Poly_stylized_cactus
v 0.159304 -0.045480 -0.158820
v 0.159304 -0.045480 0.168873
v -0.168232 -0.035335 0.168873
v -0.168232 -0.035335 -0.158820
v -0.213908 2.786281 -0.500150
v 0.236353 2.786281 -0.513059
v 0.249112 2.854743 -0.068029
v -0.201149 2.854743 -0.055120
v 0.878801 1.459169 -0.322298
v 0.915482 1.425168 0.081959
v 0.587926 1.641682 0.125804
v 0.553256 1.673286 -0.279283
v 1.172596 2.295481 -0.177920
v 1.187607 2.232894 0.166512
v 0.852335 2.329504 0.198679
v 0.837324 2.392091 -0.145753
v -0.950567 1.367463 0.225461
v -0.950641 1.365665 -0.218772
v -0.700724 1.715532 -0.221024
v -0.699963 1.720927 0.219278
v 0.196011 0.085476 -0.191455
v 0.196011 0.085476 0.201508
v -0.196763 0.097642 0.201508
v -0.196763 0.097642 -0.191455
v -0.199450 1.421742 -0.296282
v 0.265026 1.450052 -0.287032
v 0.286604 1.392294 0.174920
v -0.242919 1.500587 0.216429
v -0.230041 2.095301 -0.415542
v 0.257986 2.093569 -0.428935
v 0.275023 2.165232 0.068136
v -0.215473 2.166965 0.084981
v 1.104153 1.933025 -0.287582
v 1.126408 1.860471 0.149485
v 0.710858 2.002150 0.192144
v 0.688604 2.074704 -0.244923
v -0.449625 0.917533 0.235004
v -0.526366 1.004493 -0.238605
v 0.266338 0.539304 -0.169932
v 0.195496 0.595824 0.222643
v -0.210654 0.488662 0.200889
v -0.196104 0.573560 -0.185642
v 0.390708 1.018449 -0.294503
v 0.530835 0.989332 0.095284
v -0.376000 1.176350 -0.329309
v 0.009474 2.832090 -0.567598
v 0.295821 2.874430 -0.300360
v -0.581432 0.939870 -0.020836
v -0.349549 1.215658 0.309831
v -0.109737 0.795527 0.279676
v 0.196977 -0.051419 0.005026
v 0.215491 0.994808 0.242004
v 0.016278 1.419418 0.241592
v 0.025255 2.916770 -0.017156
v -0.261092 2.874430 -0.284394
v 0.064479 1.429977 -0.345370
v 0.350280 1.258612 -0.334345
v 0.072896 1.146857 -0.323070
v -0.004612 -0.045175 -0.196659
v 0.065338 0.792274 -0.288361
v -0.320784 0.817474 -0.221957
v -0.369746 0.724392 0.022636
v -0.268791 0.493993 0.036147
v -0.292984 0.675529 0.227580
v -0.042736 0.491497 0.263289
v 0.410739 0.753410 -0.036205
v 0.384683 0.797206 0.168198
v 0.295808 0.497355 0.026040
v 0.457927 1.171485 0.195247
v 0.059609 0.501680 -0.252740
v -0.206200 -0.038931 0.005026
v -0.004612 -0.045175 0.206712
v 0.558062 1.001304 -0.109653
v 0.328426 0.757130 -0.237163
v 1.011127 2.376605 -0.196132
v 0.815066 2.397433 0.034417
v 1.029506 2.299975 0.225582
v 1.225566 2.279146 -0.004967
v -0.860071 1.572355 0.278009
v -0.702966 1.790824 -0.000187
v -0.860431 1.568709 -0.274144
v -1.017535 1.350240 0.004052
v -0.185619 1.726090 -0.324552
v 0.011009 2.080998 -0.515763
v 0.223940 1.722525 -0.332751
v 0.358241 2.129076 -0.183234
v 0.243291 1.766364 0.109995
v 0.312634 1.525334 -0.070160
v 0.032738 2.179535 0.170082
v -0.178510 1.780829 0.131619
v -0.314493 2.131458 -0.162446
v -0.285814 1.589947 -0.039918
v -0.258966 2.508509 -0.502080
v 0.281312 2.508292 -0.517495
v 0.297022 2.590124 0.018345
v -0.243564 2.590341 0.034191
v 1.010952 1.690696 -0.314798
v 1.193196 1.870183 -0.077047
v 1.039328 1.635305 0.106897
v 0.958370 1.401797 -0.128313
v 0.922806 1.917706 0.252765
v 0.660591 1.811805 0.151413
v 0.758393 1.527274 0.179758
v 0.621816 2.064992 -0.018391
v 0.632466 1.866896 -0.270386
v 0.509362 1.697856 -0.068597
v 0.892205 2.017469 -0.348202
v 0.709339 1.572378 -0.376667
v 1.172542 2.157938 -0.248187
v 1.191780 2.080259 0.184021
v 0.772302 2.203876 0.224616
v 0.753064 2.281554 -0.207593
v -0.788769 1.193587 0.262316
v -0.795746 1.197204 -0.258127
v -0.506298 1.606011 -0.267571
v -0.507780 1.623060 0.249308
v 0.198193 0.272870 -0.179734
v 0.190807 0.276322 0.194200
v 0.269656 0.083195 0.005026
v -0.184982 0.278917 0.192018
v -0.000376 0.091559 0.275188
v -0.182085 0.285334 -0.181055
v -0.270409 0.099923 0.005026
v -0.000376 0.091559 -0.265135
v 0.682467 1.249279 -0.301927
v 0.734559 1.231047 0.084353
v 0.468028 1.489747 0.126024
v 0.429709 1.503490 -0.268539
v 0.197893 -0.013799 -0.196410
v 0.197893 -0.013799 0.206463
v -0.204786 -0.001327 0.206463
v -0.204786 -0.001327 -0.196410
v 0.391632 2.554483 -0.253356
v 0.008200 2.498197 -0.612259
v -0.933233 1.629576 0.003395
v 1.036791 2.392427 0.023844
v -0.259198 1.765401 -0.093879
v 0.034910 1.777733 0.201500
v 0.167871 1.258326 -0.331664
v 0.016866 2.987582 -0.309770
v -0.004921 -0.055179 0.005026
v -0.422396 0.805076 -0.078223
v -0.324639 0.643784 0.105895
v -0.155178 0.651331 0.274786
v 0.369308 0.674078 0.060092
v 0.365296 0.976425 0.216522
v 0.307944 1.752032 -0.115028
v 0.019058 1.712507 -0.409829
v -0.125850 0.964809 -0.304092
v -0.043924 1.078570 0.274340
v 0.439296 0.835325 -0.133685
v 0.161095 0.678370 -0.274505
v 0.029655 2.611068 0.127106
v -0.353777 2.554781 -0.231798
v 1.096130 1.629935 -0.112288
v 0.855257 1.713197 0.208233
v 0.575539 1.872416 -0.051149
v 0.816412 1.789153 -0.371670
v 1.262001 2.098344 -0.039306
v 0.986440 2.129969 0.286211
v 0.684391 2.268556 0.016591
v 0.959952 2.236931 -0.308926
v -0.853700 1.123639 0.001734
v -0.653674 1.399584 -0.359113
v -0.464475 1.701506 -0.010939
v -0.649481 1.411316 0.353756
v 0.263768 0.269107 0.007616
v -0.000258 0.274938 0.260932
v -0.252860 0.282130 0.007919
v 0.010347 0.276298 -0.250315
v 0.760644 1.197582 -0.116226
v 0.610949 1.355547 0.176800
v 0.405107 1.547541 -0.066191
v 0.548707 1.379734 -0.355067
v 0.274015 -0.016628 0.005026
v -0.003461 -0.008033 0.282636
v -0.280938 0.000562 0.005026
v -0.003461 -0.008033 -0.272583
vn 0.9076 0.1869 -0.3758
vn 0.9253 0.2846 0.2504
vn 0.9460 -0.0160 0.3238
vn 0.9236 -0.1305 -0.3606
vn -0.3451 0.0972 -0.9335
vn 0.2911 0.0972 -0.9517
vn 0.3303 -0.2127 -0.9196
vn -0.3825 -0.2128 -0.8991
vn -0.5672 0.7723 0.2861
vn -0.5689 0.7676 -0.2954
vn -0.9123 0.2973 -0.2817
vn -0.9118 0.2989 0.2817
vn 0.0435 0.9976 -0.0531
vn 0.0631 0.9160 0.3962
vn 0.5005 0.7899 0.3543
vn 0.4809 0.8716 -0.0951
vn -0.9310 -0.0590 0.3601
vn -0.9419 -0.1881 -0.2783
vn -0.9466 0.0247 -0.3214
vn -0.9223 0.2688 0.2778
vn 0.3968 0.0691 0.9153
vn -0.3187 0.0777 0.9446
vn -0.1568 0.2092 0.9652
vn 0.3209 0.1450 0.9359
vn 0.1336 0.1600 -0.9780
vn 0.0157 -0.1388 -0.9902
vn -0.1315 -0.0817 -0.9879
vn -0.3258 0.9234 0.2028
vn 0.3369 0.9234 0.1838
vn 0.3181 0.8227 -0.4712
vn -0.3446 0.8227 -0.4522
vn 0.0141 -0.9989 -0.0450
vn 0.0141 -0.9989 0.0450
vn -0.0759 -0.9961 0.0450
vn -0.0759 -0.9961 -0.0450
vn -0.7450 -0.5601 -0.3623
vn -0.7197 -0.6710 0.1784
vn -0.6282 -0.6595 -0.4128
vn -0.8708 -0.3985 -0.2880
vn -0.8469 -0.4352 0.3056
vn -0.8509 -0.4844 0.2032
vn -0.3409 -0.2900 0.8943
vn 0.1437 -0.0217 0.9894
vn -0.2154 -0.0930 0.9721
vn 0.8893 -0.4341 -0.1437
vn 0.8606 -0.4643 0.2092
vn 0.7077 -0.4628 0.5339
vn 0.5907 -0.1726 0.7882
vn 0.1041 0.1185 0.9875
vn 0.2848 -0.1117 0.9521
vn 0.9226 -0.1791 -0.3417
vn 0.9517 -0.0578 0.3015
vn 0.9692 0.1170 0.2165
vn 0.9543 0.0336 -0.2971
vn -0.3846 -0.2635 -0.8847
vn 0.3408 -0.2590 -0.9038
vn 0.3229 -0.1356 -0.9367
vn -0.2736 -0.1645 -0.9477
vn 0.0286 -0.0980 -0.9948
vn -0.1800 -0.2553 -0.9500
vn -0.1831 -0.3075 -0.9338
vn 0.0152 0.0195 -0.9997
vn 0.1377 -0.0377 0.9898
vn 0.2022 0.0958 0.9746
vn 0.0855 0.1749 0.9809
vn -0.0554 -0.1029 0.9931
vn 0.8596 -0.5109 -0.0000
vn 0.8276 -0.4411 -0.3472
vn 0.7103 -0.3486 -0.6116
vn 0.3837 -0.3517 -0.8539
vn -0.2079 -0.1150 -0.9714
vn 0.1664 -0.1695 -0.9714
vn 0.3433 0.3790 0.8594
vn -0.2927 0.3792 0.8778
vn -0.3270 0.0912 0.9406
vn 0.3858 0.0909 0.9181
vn -0.9095 0.2841 0.3034
vn -0.9279 0.1866 -0.3227
vn -0.9439 -0.1333 -0.3023
vn -0.9249 -0.0197 0.3797
vn 0.8522 -0.2787 -0.4428
vn 0.8876 -0.3917 0.2423
vn 0.8269 -0.5147 0.2264
vn 0.7787 -0.4341 -0.4529
vn 0.3581 -0.3076 0.8816
vn -0.3203 -0.1077 0.9412
vn -0.2933 -0.0056 0.9560
vn 0.3496 -0.3139 0.8827
vn -0.8955 0.1450 0.4207
vn -0.9273 0.2742 -0.2548
vn -0.8978 0.3715 -0.2365
vn -0.8522 0.2888 0.4362
vn -0.3945 0.2195 -0.8923
vn 0.2790 0.0032 -0.9603
vn 0.2373 -0.0997 -0.9663
vn -0.4063 0.2145 -0.8882
vn 0.9295 0.2066 -0.3056
vn 0.9550 0.1023 0.2783
vn 0.9131 -0.3152 0.2586
vn 0.8812 -0.1934 -0.4315
vn 0.4429 0.1602 0.8821
vn -0.1255 0.3266 0.9368
vn -0.2965 -0.0622 0.9530
vn 0.3805 -0.2536 0.8893
vn -0.6857 0.5816 0.4377
vn -0.7112 0.6874 -0.1469
vn -0.9095 0.3268 -0.2569
vn -0.8799 0.1973 0.4321
vn -0.1991 0.6311 -0.7497
vn 0.3686 0.4639 -0.8056
vn 0.3010 0.0761 -0.9506
vn -0.3734 0.2750 -0.8860
vn -0.7504 -0.5833 0.3108
vn -0.7571 -0.5789 -0.3026
vn -0.5361 -0.7685 -0.3492
vn -0.5611 -0.7770 0.2854
vn -0.4142 -0.1111 -0.9034
vn -0.0248 0.3973 -0.9174
vn 0.1263 0.1785 -0.9758
vn -0.1737 -0.3381 -0.9250
vn 0.3548 0.8706 -0.3408
vn 0.3685 0.8790 0.3028
vn 0.4785 0.8350 0.2716
vn 0.4487 0.8101 -0.3774
vn 0.0170 0.4007 0.9161
vn -0.3762 -0.1089 0.9201
vn -0.0904 -0.2673 0.9594
vn 0.2627 0.2408 0.9343
vn 0.9500 -0.1777 -0.2567
vn 0.8965 -0.0971 0.4322
vn 0.9337 0.0320 0.3566
vn 0.9399 0.0224 -0.3406
vn 0.2512 -0.0379 0.9672
vn -0.3481 -0.0802 0.9340
vn -0.3478 0.0722 0.9348
vn 0.3408 0.0587 0.9383
vn -0.9345 -0.1217 0.3346
vn -0.9407 -0.0404 -0.3367
vn -0.9324 0.0938 -0.3491
vn -0.9338 0.0817 0.3484
vn -0.2900 0.0068 -0.9570
vn 0.3669 -0.0737 -0.9273
vn 0.3522 0.0544 -0.9344
vn -0.3408 0.0866 -0.9361
vn 0.6312 -0.6355 -0.4448
vn 0.7121 -0.6692 0.2121
vn 0.7294 -0.6714 0.1315
vn 0.5601 -0.6645 -0.4946
vn 0.3469 -0.3127 0.8843
vn -0.1992 0.1564 0.9674
vn 0.0183 0.2119 0.9771
vn 0.4087 -0.2826 0.8678
vn -0.7253 0.5416 0.4251
vn -0.7982 0.5588 -0.2252
vn -0.2528 0.9341 -0.2520
vn -0.3104 0.8614 0.4021
vn -0.4004 0.2349 -0.8857
vn 0.1518 -0.2347 -0.9601
vn 0.0895 -0.2026 -0.9752
vn -0.1509 0.3019 -0.9413
vn 0.9354 0.0381 -0.3516
vn 0.9354 0.0381 0.3516
vn 0.4518 -0.8773 0.1618
vn 0.4518 -0.8773 -0.1618
vn 0.3535 0.0561 0.9338
vn -0.3493 0.0779 0.9338
vn -0.1884 -0.8575 0.4787
vn 0.1350 -0.8675 0.4787
vn -0.9312 0.0959 0.3516
vn -0.9312 0.0959 -0.3516
vn -0.5052 -0.8477 -0.1618
vn -0.5052 -0.8477 0.1618
vn -0.3493 0.0779 -0.9338
vn 0.3535 0.0561 -0.9338
vn 0.1350 -0.8675 -0.4787
vn -0.1884 -0.8575 -0.4787
s 0
f 6//1 47//1 133//1 94//1
f 47//2 7//2 95//2 133//2
f 133//3 95//3 31//3 86//3
f 94//4 133//4 86//4 30//4
f 5//5 46//5 134//5 93//5
f 46//6 6//6 94//6 134//6
f 134//7 94//7 30//7 84//7
f 93//8 134//8 84//8 29//8
f 20//9 80//9 135//9 79//9
f 80//10 19//10 81//10 135//10
f 135//11 81//11 18//11 82//11
f 79//12 135//12 82//12 17//12
f 16//13 76//13 136//13 75//13
f 76//14 15//14 77//14 136//14
f 136//15 77//15 14//15 78//15
f 75//16 136//16 78//16 13//16
f 32//17 91//17 137//17 90//17
f 91//18 29//18 83//18 137//18
f 137//19 83//19 25//19 92//19
f 90//20 137//20 92//20 28//20
f 31//21 89//21 138//21 87//21
f 89//22 32//22 90//22 138//22
f 138//23 90//23 28//23 53//23
f 87//24 138//24 53//24 27//24
f 26//25 57//25 139//25 56//25
f 43//26 58//26 139//26 57//26
f 25//27 56//27 139//27 58//27
f 8//28 54//28 140//28 55//28
f 54//29 7//29 47//29 140//29
f 140//30 47//30 6//30 46//30
f 55//31 140//31 46//31 5//31
f 1//32 51//32 141//32 59//32
f 51//33 2//33 72//33 141//33
f 141//34 72//34 3//34 71//34
f 59//35 141//35 71//35 4//35
f 42//36 62//36 142//36 61//36
f 37//37 48//37 142//37 62//37
f 38//38 61//38 142//38 48//38
f 42//39 63//39 143//39 62//39
f 41//40 64//40 143//40 63//40
f 37//41 62//41 143//41 64//41
f 41//42 65//42 144//42 64//42
f 40//43 50//43 144//43 65//43
f 37//44 64//44 144//44 50//44
f 39//45 66//45 145//45 68//45
f 44//46 67//46 145//46 66//46
f 40//47 68//47 145//47 67//47
f 44//48 69//48 146//48 67//48
f 27//49 52//49 146//49 69//49
f 40//50 67//50 146//50 52//50
f 30//51 86//51 147//51 85//51
f 86//52 31//52 87//52 147//52
f 147//53 87//53 27//53 88//53
f 85//54 147//54 88//54 26//54
f 29//55 84//55 148//55 83//55
f 84//56 30//56 85//56 148//56
f 148//57 85//57 26//57 56//57
f 83//58 148//58 56//58 25//58
f 43//59 60//59 149//59 58//59
f 60//60 42//60 61//60 149//60
f 149//61 61//61 38//61 45//61
f 58//62 149//62 45//62 25//62
f 40//63 52//63 150//63 50//63
f 52//64 27//64 53//64 150//64
f 150//65 53//65 28//65 49//65
f 50//66 150//66 49//66 37//66
f 44//67 66//67 151//67 73//67
f 39//68 74//68 151//68 66//68
f 43//69 73//69 151//69 74//69
f 39//70 70//70 152//70 74//70
f 42//71 60//71 152//71 70//71
f 43//72 74//72 152//72 60//72
f 7//73 54//73 153//73 95//73
f 54//74 8//74 96//74 153//74
f 153//75 96//75 32//75 89//75
f 95//76 153//76 89//76 31//76
f 8//77 55//77 154//77 96//77
f 55//78 5//78 93//78 154//78
f 154//79 93//79 29//79 91//79
f 96//80 154//80 91//80 32//80
f 33//81 98//81 155//81 97//81
f 98//82 34//82 99//82 155//82
f 155//83 99//83 10//83 100//83
f 97//84 155//84 100//84 9//84
f 34//85 101//85 156//85 99//85
f 101//86 35//86 102//86 156//86
f 156//87 102//87 11//87 103//87
f 99//88 156//88 103//88 10//88
f 35//89 104//89 157//89 102//89
f 104//90 36//90 105//90 157//90
f 157//91 105//91 12//91 106//91
f 102//92 157//92 106//92 11//92
f 36//93 107//93 158//93 105//93
f 107//94 33//94 97//94 158//94
f 158//95 97//95 9//95 108//95
f 105//96 158//96 108//96 12//96
f 13//97 78//97 159//97 109//97
f 78//98 14//98 110//98 159//98
f 159//99 110//99 34//99 98//99
f 109//100 159//100 98//100 33//100
f 14//101 77//101 160//101 110//101
f 77//102 15//102 111//102 160//102
f 160//103 111//103 35//103 101//103
f 110//104 160//104 101//104 34//104
f 15//105 76//105 161//105 111//105
f 76//106 16//106 112//106 161//106
f 161//107 112//107 36//107 104//107
f 111//108 161//108 104//108 35//108
f 16//109 75//109 162//109 112//109
f 75//110 13//110 109//110 162//110
f 162//111 109//111 33//111 107//111
f 112//112 162//112 107//112 36//112
f 17//113 82//113 163//113 113//113
f 82//114 18//114 114//114 163//114
f 163//115 114//115 38//115 48//115
f 113//116 163//116 48//116 37//116
f 18//117 81//117 164//117 114//117
f 81//118 19//118 115//118 164//118
f 164//119 115//119 25//119 45//119
f 114//120 164//120 45//120 38//120
f 19//121 80//121 165//121 115//121
f 80//122 20//122 116//122 165//122
f 165//123 116//123 28//123 92//123
f 115//124 165//124 92//124 25//124
f 20//125 79//125 166//125 116//125
f 79//126 17//126 113//126 166//126
f 166//127 113//127 37//127 49//127
f 116//128 166//128 49//128 28//128
f 39//129 68//129 167//129 117//129
f 68//130 40//130 118//130 167//130
f 167//131 118//131 22//131 119//131
f 117//132 167//132 119//132 21//132
f 40//133 65//133 168//133 118//133
f 65//134 41//134 120//134 168//134
f 168//135 120//135 23//135 121//135
f 118//136 168//136 121//136 22//136
f 41//137 63//137 169//137 120//137
f 63//138 42//138 122//138 169//138
f 169//139 122//139 24//139 123//139
f 120//140 169//140 123//140 23//140
f 42//141 70//141 170//141 122//141
f 70//142 39//142 117//142 170//142
f 170//143 117//143 21//143 124//143
f 122//144 170//144 124//144 24//144
f 9//145 100//145 171//145 125//145
f 100//146 10//146 126//146 171//146
f 171//147 126//147 44//147 73//147
f 125//148 171//148 73//148 43//148
f 10//149 103//149 172//149 126//149
f 103//150 11//150 127//150 172//150
f 172//151 127//151 27//151 69//151
f 126//152 172//152 69//152 44//152
f 11//153 106//153 173//153 127//153
f 106//154 12//154 128//154 173//154
f 173//155 128//155 26//155 88//155
f 127//156 173//156 88//156 27//156
f 12//157 108//157 174//157 128//157
f 108//158 9//158 125//158 174//158
f 174//159 125//159 43//159 57//159
f 128//160 174//160 57//160 26//160
f 21//161 119//161 175//161 129//161
f 119//162 22//162 130//162 175//162
f 175//163 130//163 2//163 51//163
f 129//164 175//164 51//164 1//164
f 22//165 121//165 176//165 130//165
f 121//166 23//166 131//166 176//166
f 176//167 131//167 3//167 72//167
f 130//168 176//168 72//168 2//168
f 23//169 123//169 177//169 131//169
f 123//170 24//170 132//170 177//170
f 177//171 132//171 4//171 71//171
f 131//172 177//172 71//172 3//172
f 24//173 124//173 178//173 132//173
f 124//174 21//174 129//174 178//174
f 178//175 129//175 1//175 59//175
f 132//176 178//176 59//176 4//176
